<?xml version="1.0" encoding="utf-8"?>
<!-- Generator: Adobe Illustrator 24.3.0, SVG Export Plug-In . SVG Version: 6.00 Build 0)  -->
<svg version="1.1" id="Layer_1" xmlns="http://www.w3.org/2000/svg" xmlns:xlink="http://www.w3.org/1999/xlink" x="0px" y="0px"
	 viewBox="0 0 750 750" style="enable-background:new 0 0 750 750;" xml:space="preserve">
<style type="text/css">
	.st0{fill:#FFFFFF;}
</style>
<g id="change1_1">
	<path class="st0" d="M634.6,322c-4.9,2.4-8.1,7.4-8.1,13v320.4l-59.8,59.8l-59.8-59.8v-36.9l24.6-24.6c2.7-2.7,4.2-6.4,4.2-10.2
		s-1.5-7.5-4.2-10.2L506.9,549v-48.2l24.6-24.6c2.7-2.7,4.2-6.4,4.2-10.2s-1.5-7.5-4.2-10.2l-24.6-24.6V335c0-5.5-3.1-10.5-8.1-13
		c-53.4-26.2-86.6-79.3-86.6-138.8c0-85.2,69.3-154.4,154.4-154.4c41.3,0,80,16.1,109.2,45.2c29.2,29.2,45.2,68,45.2,109.2
		C721.2,242.7,688,295.9,634.6,322z M696.3,53.7C661.7,19.1,615.7,0,566.7,0C465.7,0,383.4,82.2,383.4,183.3
		c0,67.5,36,128.1,94.7,160.5v93.4c0,3.8,1.5,7.5,4.2,10.2l18.6,18.6l-18.6,18.6c-2.7,2.7-4.2,6.4-4.2,10.2v60.2
		c0,3.8,1.5,7.5,4.2,10.2l18.6,18.6l-18.6,18.6c-2.7,2.7-4.2,6.4-4.2,10.2v48.8c0,3.8,1.5,7.5,4.2,10.2l74.2,74.2
		c2.8,2.8,6.5,4.2,10.2,4.2s7.4-1.4,10.2-4.2l74.2-74.2c2.7-2.7,4.2-6.4,4.2-10.2V343.7c58.6-32.3,94.7-93,94.7-160.5
		C750,134.3,730.9,88.3,696.3,53.7"/>
	<path class="st0" d="M566.7,152.5c-15.9,0-28.8-12.9-28.8-28.8c0-15.9,12.9-28.9,28.8-28.9s28.8,12.9,28.8,28.9
		C595.6,139.5,582.6,152.5,566.7,152.5z M566.7,65.9c-31.8,0-57.7,25.9-57.7,57.7c0,31.8,25.9,57.7,57.7,57.7s57.7-25.9,57.7-57.7
		C624.4,91.8,598.5,65.9,566.7,65.9"/>
	<path class="st0" d="M287.6,590.3c8,0,14.4-6.5,14.4-14.4v-48.2c8.6-5,14.4-14.3,14.4-24.9c0-15.9-12.9-28.8-28.8-28.8
		c-15.9,0-28.8,12.9-28.8,28.8c0,10.6,5.8,19.9,14.4,24.9v48.2C273.2,583.8,279.6,590.3,287.6,590.3"/>
	<path class="st0" d="M464.7,721.1H69.2c-22.2,0-40.3-18.1-40.3-40.3V377.2c0-22.2,18.1-40.3,40.3-40.3h300.5
		c8,0,14.4-6.5,14.4-14.4s-6.5-14.4-14.4-14.4H148V168.4c0-77,62.6-139.6,139.6-139.6c27.7,0,54.4,8.1,77.4,23.4
		c6.6,4.4,15.6,2.6,20-4c4.4-6.6,2.6-15.6-4-20C353.2,9.8,321,0,287.6,0c-92.9,0-168.5,75.6-168.5,168.4v139.6h-50
		C31,308.1,0,339.1,0,377.2v303.6C0,719,31,750,69.2,750h395.6c8,0,14.4-6.5,14.4-14.4C479.2,727.6,472.7,721.1,464.7,721.1"/>
</g>
</svg>
