<?xml version="1.0" encoding="utf-8"?>
<!-- Generator: Adobe Illustrator 24.3.0, SVG Export Plug-In . SVG Version: 6.00 Build 0)  -->
<svg version="1.1" id="Layer_1" xmlns="http://www.w3.org/2000/svg" xmlns:xlink="http://www.w3.org/1999/xlink" x="0px" y="0px"
	 viewBox="0 0 190.7 32.2" style="enable-background:new 0 0 190.7 32.2;" xml:space="preserve">
<g>
	<path d="M20.5,11.2c-0.4-0.6-0.9-1.1-1.7-1.4c-0.7-0.3-1.6-0.5-2.6-0.5c-1.9,0-3.4,0.6-4.4,1.8s-1.6,2.9-1.6,5.1
		c0,2.5,0.6,4.3,1.7,5.5s2.9,1.8,5.3,1.8c2.3,0,4.1-0.9,5.5-2.8h-7.8v-7h16.1v9.9c-1.4,2.3-3.2,4.3-5.7,6c-2.4,1.7-5.5,2.5-9.1,2.5
		c-3.3,0-6.1-0.7-8.5-2c-2.4-1.4-4.3-3.2-5.6-5.7c-1.3-2.5-1.9-5.2-1.9-8.3S1,10.2,2.2,7.8s3.2-4.3,5.5-5.7c2.4-1.4,5.2-2,8.5-2
		c4.1,0,7.5,1,10.1,3s4.1,4.7,4.6,8.1H20.5z"/>
	<path d="M54.9,27.1H44.4l-1.6,4.8H32.5L44,0.4h11.4l11.5,31.4H56.5L54.9,27.1z M52.5,19.7l-2.9-8.8l-2.9,8.8H52.5z"/>
	<path d="M79,24.4h9.5v7.4H69.2V0.4H79L79,24.4L79,24.4z"/>
	<path d="M111.9,27.1h-10.5l-1.6,4.8H89.4L101,0.4h11.4l11.5,31.4h-10.4L111.9,27.1z M109.4,19.7l-2.9-8.8l-2.9,8.8H109.4z"/>
	<path d="M146.1,31.8l-5.8-8.2l-4.8,8.2h-11.3l10.4-16.2L123.8,0.4h11.7l5.6,7.9l4.6-7.9H157l-10.2,15.9l11,15.6H146.1z"/>
	<path d="M190.3,0.4L179,22.3v9.6h-9.9v-9.6L157.8,0.4h11.3l5,11.1l5-11.1C179.2,0.4,190.3,0.4,190.3,0.4z"/>
</g>
</svg>
