<?xml version="1.0" encoding="utf-8"?>
<!-- Generator: Adobe Illustrator 24.3.0, SVG Export Plug-In . SVG Version: 6.00 Build 0)  -->
<svg version="1.1" id="Layer_1" xmlns="http://www.w3.org/2000/svg" xmlns:xlink="http://www.w3.org/1999/xlink" x="0px" y="0px"
	 viewBox="0 0 52 52" style="enable-background:new 0 0 52 52;" xml:space="preserve">
<style type="text/css">
	.st0{fill:#382A40;}
</style>
<g id="change1_1">
	<path class="st0" d="M26,1.7C12.6,1.7,1.7,12.6,1.7,26S12.6,50.3,26,50.3S50.3,39.4,50.3,26S39.4,1.7,26,1.7z M26,52
		C11.7,52,0,40.3,0,26S11.7,0,26,0s26,11.7,26,26S40.3,52,26,52"/>
	<path class="st0" d="M24.3,5.3c-0.5,0-0.8-0.3-0.9-0.8c0-0.5,0.3-0.9,0.8-0.9c0.6,0,1.2-0.1,1.8-0.1c0.5,0,0.9,0.4,0.9,0.9
		S26.5,5.2,26,5.2C25.4,5.2,24.9,5.2,24.3,5.3C24.3,5.3,24.3,5.3,24.3,5.3"/>
	<path class="st0" d="M4.3,26.9c-0.5,0-0.9-0.4-0.9-0.9c0-10.4,7-19.4,17.1-21.9c0.5-0.1,0.9,0.2,1,0.6c0.1,0.5-0.2,0.9-0.6,1
		C11.7,8.1,5.2,16.4,5.2,26C5.2,26.5,4.8,26.9,4.3,26.9"/>
	<path class="st0" d="M15.6,24.3c-1,0-1.7,0.8-1.7,1.7s0.8,1.7,1.7,1.7h20.8c1,0,1.7-0.8,1.7-1.7s-0.8-1.7-1.7-1.7H15.6z M36.4,29.5
		H15.6c-1.9,0-3.5-1.6-3.5-3.5s1.6-3.5,3.5-3.5h20.8c1.9,0,3.5,1.6,3.5,3.5S38.3,29.5,36.4,29.5"/>
	<path class="st0" d="M15.6,15.6c-1,0-1.7,0.8-1.7,1.7c0,1,0.8,1.7,1.7,1.7h20.8c1,0,1.7-0.8,1.7-1.7c0-1-0.8-1.7-1.7-1.7H15.6z
		 M36.4,20.8H15.6c-1.9,0-3.5-1.6-3.5-3.5s1.6-3.5,3.5-3.5h20.8c1.9,0,3.5,1.6,3.5,3.5S38.3,20.8,36.4,20.8"/>
	<path class="st0" d="M15.6,32.9c-1,0-1.7,0.8-1.7,1.7c0,1,0.8,1.7,1.7,1.7h20.8c1,0,1.7-0.8,1.7-1.7c0-1-0.8-1.7-1.7-1.7H15.6z
		 M36.4,38.1H15.6c-1.9,0-3.5-1.6-3.5-3.5c0-1.9,1.6-3.5,3.5-3.5h20.8c1.9,0,3.5,1.6,3.5,3.5C39.9,36.6,38.3,38.1,36.4,38.1"/>
</g>
</svg>
