<?xml version="1.0" encoding="UTF-8" standalone="no"?>
<svg xmlns="http://www.w3.org/2000/svg" xmlns:xlink="http://www.w3.org/1999/xlink" fill="#000000" height="60" preserveAspectRatio="xMidYMid meet" version="1" viewBox="2.0 2.0 60.0 60.0" width="60" zoomAndPan="magnify"><g fill="#382a40" id="change1_1"><path d="M 32 4 C 16.558594 4 4 16.558594 4 32 C 4 47.441406 16.558594 60 32 60 C 47.441406 60 60 47.441406 60 32 C 60 16.558594 47.441406 4 32 4 Z M 32 62 C 15.457031 62 2 48.542969 2 32 C 2 15.457031 15.457031 2 32 2 C 48.542969 2 62 15.457031 62 32 C 62 48.542969 48.542969 62 32 62" fill="inherit"/><path d="M 30 8.078125 C 29.480469 8.078125 29.042969 7.679688 29.003906 7.15625 C 28.960938 6.605469 29.371094 6.125 29.921875 6.082031 C 30.609375 6.027344 31.308594 6 32 6 C 32.550781 6 33 6.449219 33 7 C 33 7.550781 32.550781 8 32 8 C 31.363281 8 30.714844 8.027344 30.078125 8.078125 C 30.050781 8.078125 30.027344 8.078125 30 8.078125" fill="inherit"/><path d="M 7 33 C 6.449219 33 6 32.550781 6 32 C 6 20.015625 14.125 9.632812 25.761719 6.757812 C 26.292969 6.621094 26.839844 6.949219 26.96875 7.488281 C 27.101562 8.023438 26.777344 8.566406 26.238281 8.699219 C 15.5 11.351562 8 20.933594 8 32 C 8 32.550781 7.550781 33 7 33" fill="inherit"/><path d="M 20 30 C 18.898438 30 18 30.898438 18 32 C 18 33.101562 18.898438 34 20 34 L 44 34 C 45.101562 34 46 33.101562 46 32 C 46 30.898438 45.101562 30 44 30 Z M 44 36 L 20 36 C 17.792969 36 16 34.207031 16 32 C 16 29.792969 17.792969 28 20 28 L 44 28 C 46.207031 28 48 29.792969 48 32 C 48 34.207031 46.207031 36 44 36" fill="inherit"/><path d="M 20 20 C 18.898438 20 18 20.898438 18 22 C 18 23.101562 18.898438 24 20 24 L 44 24 C 45.101562 24 46 23.101562 46 22 C 46 20.898438 45.101562 20 44 20 Z M 44 26 L 20 26 C 17.792969 26 16 24.207031 16 22 C 16 19.792969 17.792969 18 20 18 L 44 18 C 46.207031 18 48 19.792969 48 22 C 48 24.207031 46.207031 26 44 26" fill="inherit"/><path d="M 20 40 C 18.898438 40 18 40.898438 18 42 C 18 43.101562 18.898438 44 20 44 L 44 44 C 45.101562 44 46 43.101562 46 42 C 46 40.898438 45.101562 40 44 40 Z M 44 46 L 20 46 C 17.792969 46 16 44.207031 16 42 C 16 39.792969 17.792969 38 20 38 L 44 38 C 46.207031 38 48 39.792969 48 42 C 48 44.207031 46.207031 46 44 46" fill="inherit"/></g></svg>