<?xml version="1.0" encoding="utf-8"?>
<!-- Generator: Adobe Illustrator 24.3.0, SVG Export Plug-In . SVG Version: 6.00 Build 0)  -->
<svg version="1.1" id="Layer_1" xmlns="http://www.w3.org/2000/svg" xmlns:xlink="http://www.w3.org/1999/xlink" x="0px" y="0px"
	 viewBox="0 0 243 263.3" style="enable-background:new 0 0 243 263.3;" xml:space="preserve">
<style type="text/css">
	.st0{fill:#FEFFFF;}
	.st1{fill:#313185;}
	.st2{fill:none;stroke:#313185;stroke-width:4.5;stroke-linecap:round;stroke-linejoin:round;stroke-miterlimit:1;}
	.st3{fill:#F7F726;}
	.st4{fill:#B819F9;}
	.st5{fill:#F90D3B;}
</style>
<g id="change1_1">
	<path class="st0" d="M66.1,249.4c-6.6,0-12-5.4-12-12V31.7c0-6.6,5.4-12,12-12h108.6c6.6,0,12,5.4,12,12v205.7c0,6.6-5.4,12-12,12
		H66.1"/>
</g>
<g id="change2_1">
	<path class="st1" d="M174.8,17.5H66.1c-7.8,0-14.2,6.4-14.2,14.2v205.7c0,7.8,6.4,14.2,14.2,14.2h108.6c7.8,0,14.2-6.4,14.2-14.2
		V31.7C189,23.9,182.6,17.5,174.8,17.5z M174.8,22c5.4,0,9.7,4.3,9.7,9.7v205.7c0,5.4-4.4,9.7-9.7,9.7H66.1c-5.4,0-9.7-4.3-9.7-9.7
		V31.7c0-5.4,4.3-9.7,9.7-9.7H174.8"/>
</g>
<g id="change3_1">
	<path class="st0" d="M177.6,221.1V42.5c0-4.8-3.9-8.7-8.7-8.7h-23.7v5.4c0,1.8-1.4,3.2-3.2,3.2H98.9c-1.8,0-3.2-1.4-3.2-3.2v-5.4
		H72c-4.8,0-8.7,3.9-8.7,8.7V221h114.3"/>
</g>
<path class="st2" d="M177.6,221.1V42.5c0-4.8-3.9-8.7-8.7-8.7h-23.7v5.4c0,1.8-1.4,3.2-3.2,3.2H98.9c-1.8,0-3.2-1.4-3.2-3.2v-5.4H72
	c-4.8,0-8.7,3.9-8.7,8.7V221h114.3V221.1z"/>
<g id="change4_1">
	<path class="st3" d="M108.6,241.6c-3,0-5.5-2.5-5.5-5.5v-1.6c0-3,2.5-5.5,5.5-5.5h23.7c3,0,5.5,2.5,5.5,5.5v1.6
		c0,3-2.5,5.5-5.5,5.5H108.6"/>
</g>
<g id="change2_2">
	<path class="st1" d="M132.3,226.8h-23.7c-4.3,0-7.7,3.5-7.7,7.7v1.6c0,4.3,3.5,7.7,7.7,7.7h23.7c4.3,0,7.7-3.5,7.7-7.7v-1.6
		C140,230.3,136.6,226.8,132.3,226.8z M132.3,231.3c1.8,0,3.2,1.4,3.2,3.2v1.6c0,1.8-1.4,3.2-3.2,3.2h-23.7c-1.8,0-3.2-1.4-3.2-3.2
		v-1.6c0-1.8,1.4-3.2,3.2-3.2H132.3"/>
</g>
<g id="change4_2">
	<path class="st3" d="M106.5,35c-1.9,0-3.4-1.5-3.4-3.4V31c0-1.9,1.5-3.4,3.4-3.4h27.9c1.9,0,3.4,1.5,3.4,3.4v0.6
		c0,1.9-1.5,3.4-3.4,3.4H106.5"/>
</g>
<g id="change2_3">
	<path class="st1" d="M134.4,25.4h-27.9c-3.1,0-5.6,2.5-5.6,5.6v0.6c0,3.1,2.5,5.6,5.6,5.6h27.9c3.1,0,5.7-2.5,5.7-5.6V31
		C140.1,27.9,137.5,25.4,134.4,25.4z M134.4,29.9c0.6,0,1.2,0.5,1.2,1.2v0.6c0,0.6-0.5,1.2-1.2,1.2h-27.9c-0.6,0-1.2-0.5-1.2-1.2
		v-0.6c0-0.6,0.5-1.2,1.2-1.2H134.4"/>
</g>
<g id="change5_1">
	<path class="st4" d="M111.4,101.8c0-9.5-7.7-17.3-17.3-17.3H52.8c-9.5,0-17.3,7.7-17.3,17.3s7.7,17.3,17.3,17.3H85
		c1.6,4.5,5.5,11.9,14.5,14.7c0,0-4.2-6.8-4.3-14.7C104.3,118.5,111.4,111,111.4,101.8"/>
</g>
<path class="st2" d="M111.4,101.8c0-9.5-7.7-17.3-17.3-17.3H52.8c-9.5,0-17.3,7.7-17.3,17.3s7.7,17.3,17.3,17.3H85
	c1.6,4.5,5.5,11.9,14.5,14.7c0,0-4.2-6.8-4.3-14.7C104.3,118.5,111.4,111,111.4,101.8z"/>
<g id="change5_2">
	<path class="st5" d="M121.5,144.3c0-11.6,9.4-20.9,20.9-20.9h50.1c11.6,0,20.9,9.4,20.9,20.9c0,11.6-9.4,20.9-20.9,20.9h-39.1
		c-1.9,5.4-6.6,14.5-17.6,17.8c0,0,5.1-8.2,5.2-17.9C130.1,164.4,121.5,155.4,121.5,144.3"/>
</g>
<path class="st2" d="M121.5,144.3c0-11.6,9.4-20.9,20.9-20.9h50.1c11.6,0,20.9,9.4,20.9,20.9c0,11.6-9.4,20.9-20.9,20.9h-39.1
	c-1.9,5.4-6.6,14.5-17.6,17.8c0,0,5.1-8.2,5.2-17.9C130.1,164.4,121.5,155.4,121.5,144.3z"/>
<path class="st2" d="M33.1,219.2v15.9"/>
<path class="st2" d="M41.1,227.1H25.2"/>
<path class="st2" d="M15.4,235.1v25.5"/>
<path class="st2" d="M28.2,247.8H2.6"/>
<path class="st2" d="M232.5,2.6v15.9"/>
<path class="st2" d="M240.4,10.5h-15.9"/>
<path class="st2" d="M214.7,18.5V44"/>
<path class="st2" d="M227.5,31.2H202"/>
<path class="st2" d="M21.8,36.6v15.9"/>
<path class="st2" d="M29.8,44.5H13.9"/>
<path class="st2" d="M229.1,233.9v15.9"/>
<path class="st2" d="M237,241.8h-15.9"/>
</svg>
