<?xml version="1.0" encoding="utf-8"?>
<!-- Generator: Adobe Illustrator 24.3.0, SVG Export Plug-In . SVG Version: 6.00 Build 0)  -->
<svg version="1.1" id="Bfp0j65x26GZHULE" xmlns="http://www.w3.org/2000/svg" xmlns:xlink="http://www.w3.org/1999/xlink" x="0px"
	 y="0px" viewBox="0 0 223.2 7" style="enable-background:new 0 0 223.2 7;" xml:space="preserve">
<style type="text/css">
	.st0{fill:none;stroke:#382A40;stroke-width:2;}
	.st1{fill:#382A40;}
</style>
<line class="st0" x1="5" y1="3.5" x2="217" y2="3.5"/>
<g id="UhVRFkbz5ocmEBR7">
	<path class="st1" d="M3.5,2C4.3,2,5,2.7,5,3.5S4.3,5,3.5,5S2,4.3,2,3.5S2.7,2,3.5,2 M3.5,0C1.6,0,0,1.6,0,3.5S1.6,7,3.5,7
		S7,5.4,7,3.5S5.4,0,3.5,0L3.5,0z"/>
</g>
<g id="a42aWmIjGxEU2MaW">
	<g id="o4mK65gtRT3Tzihf">
		<path class="st1" d="M219.7,2c0.8,0,1.5,0.7,1.5,1.5S220.6,5,219.7,5s-1.5-0.7-1.5-1.5S218.9,2,219.7,2 M219.7,0
			c-1.9,0-3.5,1.6-3.5,3.5s1.6,3.5,3.5,3.5s3.5-1.6,3.5-3.5S221.7,0,219.7,0L219.7,0z"/>
	</g>
</g>
</svg>
