<?xml version="1.0" encoding="UTF-8" standalone="no"?><svg xmlns="http://www.w3.org/2000/svg" xmlns:xlink="http://www.w3.org/1999/xlink" fill="#000000" height="750" preserveAspectRatio="xMidYMid meet" version="1" viewBox="375.0 375.0 750.0 750.0" width="750" zoomAndPan="magnify"><g id="change1_1"><path d="M 1009.570312 697.035156 C 1004.621094 699.460938 1001.488281 704.484375 1001.488281 709.988281 L 1001.488281 1030.410156 L 941.714844 1090.179688 L 881.941406 1030.410156 L 881.941406 993.507812 L 906.515625 968.933594 C 909.222656 966.226562 910.742188 962.558594 910.742188 958.734375 C 910.742188 954.910156 909.222656 951.238281 906.515625 948.535156 L 881.941406 923.960938 L 881.941406 875.742188 L 906.515625 851.160156 C 909.222656 848.457031 910.742188 844.789062 910.742188 840.964844 C 910.742188 837.140625 909.222656 833.472656 906.515625 830.765625 L 881.941406 806.191406 L 881.941406 709.988281 C 881.941406 704.484375 878.808594 699.460938 873.867188 697.035156 C 820.457031 670.863281 787.277344 617.695312 787.277344 558.285156 C 787.277344 473.128906 856.558594 403.851562 941.714844 403.851562 C 982.96875 403.851562 1021.75 419.910156 1050.921875 449.078125 C 1080.089844 478.25 1096.148438 517.035156 1096.148438 558.285156 C 1096.160156 617.695312 1062.980469 670.863281 1009.570312 697.035156 Z M 1071.320312 428.679688 C 1036.699219 394.058594 990.675781 375 941.714844 375 C 840.652344 375 758.433594 457.21875 758.433594 558.285156 C 758.433594 625.746094 794.476562 686.421875 853.097656 718.738281 L 853.097656 812.167969 C 853.097656 815.992188 854.617188 819.660156 857.320312 822.367188 L 875.921875 840.964844 L 857.320312 859.566406 C 854.617188 862.269531 853.097656 865.941406 853.097656 869.765625 L 853.097656 929.9375 C 853.097656 933.761719 854.617188 937.429688 857.320312 940.132812 L 875.921875 958.734375 L 857.320312 977.332031 C 854.617188 980.035156 853.097656 983.707031 853.097656 987.53125 L 853.097656 1036.378906 C 853.097656 1040.210938 854.617188 1043.871094 857.320312 1046.578125 L 931.515625 1120.78125 C 934.335938 1123.589844 938.023438 1125 941.714844 1125 C 945.40625 1125 949.097656 1123.589844 951.914062 1120.78125 L 1026.109375 1046.578125 C 1028.820312 1043.871094 1030.339844 1040.210938 1030.339844 1036.378906 L 1030.339844 718.738281 C 1088.960938 686.421875 1125 625.746094 1125 558.285156 C 1125 509.328125 1105.929688 463.300781 1071.320312 428.679688" fill="#ffffff"/><path d="M 941.714844 527.464844 C 925.808594 527.464844 912.871094 514.523438 912.871094 498.621094 C 912.871094 482.710938 925.808594 469.769531 941.714844 469.769531 C 957.621094 469.769531 970.5625 482.710938 970.5625 498.621094 C 970.5625 514.523438 957.621094 527.464844 941.714844 527.464844 Z M 941.714844 440.921875 C 909.902344 440.921875 884.023438 466.808594 884.023438 498.621094 C 884.023438 530.429688 909.902344 556.308594 941.714844 556.308594 C 973.527344 556.308594 999.40625 530.429688 999.40625 498.621094 C 999.40625 466.808594 973.527344 440.921875 941.714844 440.921875" fill="#ffffff"/><path d="M 662.578125 965.277344 C 670.542969 965.277344 677 958.816406 677 950.851562 L 677 902.675781 C 685.605469 897.679688 691.421875 888.382812 691.421875 877.734375 C 691.421875 861.828125 678.480469 848.886719 662.578125 848.886719 C 646.671875 848.886719 633.730469 861.828125 633.730469 877.734375 C 633.730469 888.382812 639.546875 897.679688 648.152344 902.675781 L 648.152344 950.851562 C 648.152344 958.816406 654.613281 965.277344 662.578125 965.277344" fill="#ffffff"/><path d="M 839.730469 1096.148438 L 444.164062 1096.148438 C 421.933594 1096.148438 403.847656 1078.070312 403.847656 1055.839844 L 403.847656 752.21875 C 403.847656 729.984375 421.933594 711.898438 444.164062 711.898438 L 744.707031 711.898438 C 752.671875 711.898438 759.128906 705.441406 759.128906 697.476562 C 759.128906 689.511719 752.671875 683.054688 744.707031 683.054688 L 522.972656 683.054688 L 522.972656 543.449219 C 522.972656 466.46875 585.601562 403.851562 662.578125 403.851562 C 690.238281 403.851562 716.988281 411.929688 739.929688 427.238281 C 746.554688 431.660156 755.511719 429.871094 759.929688 423.238281 C 764.351562 416.621094 762.5625 407.660156 755.9375 403.238281 C 728.238281 384.761719 695.957031 375 662.578125 375 C 569.695312 375 494.125 450.570312 494.125 543.449219 L 494.125 683.054688 L 444.164062 683.054688 C 406.027344 683.054688 375 714.078125 375 752.21875 L 375 1055.839844 C 375 1093.96875 406.027344 1125 444.164062 1125 L 839.730469 1125 C 847.695312 1125 854.152344 1118.539062 854.152344 1110.578125 C 854.152344 1102.609375 847.695312 1096.148438 839.730469 1096.148438" fill="#ffffff"/></g></svg>